<svg width="81" height="21" viewBox="0 0 81 21" fill="none" xmlns="http://www.w3.org/2000/svg">
<path fill-rule="evenodd" clip-rule="evenodd" d="M31.0775 6.16429L30.3997 5.65592L30.694 5.34432C30.6745 4.84356 30.9047 4.24746 31.3432 3.75316C31.824 3.21119 32.4564 2.9034 32.9886 2.91471L33.2805 2.60571L33.7888 3.28354L33.7797 3.29326C34.1738 3.81645 34.017 4.75959 33.3394 5.52364C32.6211 6.33291 31.6338 6.5853 31.08 6.1617L31.0775 6.16429Z" fill="url(#paint0_linear_57_443)"/>
<path d="M32.8759 5.04862C33.6461 4.18054 33.7969 3.05669 33.2128 2.53843C32.6286 2.02018 31.5307 2.30377 30.7606 3.17185C29.9904 4.03993 29.8396 5.16378 30.4237 5.68204C31.0078 6.20029 32.1057 5.9167 32.8759 5.04862Z" fill="url(#paint1_linear_57_443)"/>
<path d="M32.8866 5.0581C33.652 4.19534 33.7943 3.07158 33.2042 2.5481C32.6142 2.02463 31.5154 2.29968 30.7499 3.16244C29.9845 4.0252 29.8423 5.14897 30.4323 5.67244C31.0223 6.19591 32.1211 5.92086 32.8866 5.0581Z" fill="#0052FE"/>
<path d="M8.04306 10.4317L15.5479 2.39062H11.5569L3.58637 10.7631V2.39062H0V19.0393H3.58637V15.1141L5.68152 12.9396L10.6723 19.0393H14.8837L8.55075 11.0708L8.04306 10.431V10.4317Z" fill="#0052FE"/>
<path d="M27.1136 9.78978C25.9979 8.01998 23.9509 6.92529 21.4551 6.92529C18.7879 6.92529 16.6223 8.17656 15.5662 10.1592C15.11 11.0085 14.8613 11.9947 14.8613 13.0718C14.8613 16.6656 17.6444 19.2183 21.4551 19.2183C25.2659 19.2183 28.028 16.6656 28.028 13.0718C28.028 11.8334 27.6993 10.7177 27.1136 9.78978V9.78978ZM21.4551 16.3776C19.7172 16.3776 18.3799 15.1351 18.3799 13.0718C18.3799 11.2973 19.3668 10.13 20.7488 9.83858C20.9746 9.7891 21.2111 9.7647 21.4551 9.7647C21.6266 9.7647 21.7913 9.77554 21.9533 9.80198C23.4371 10.0162 24.5074 11.2098 24.5074 13.0718C24.5074 15.1351 23.1938 16.3776 21.4558 16.3776H21.4551Z" fill="#0052FE"/>
<path d="M33.82 7.10278H30.3448V19.0399H33.82V7.10278Z" fill="#0052FE"/>
<path d="M44.3371 6.92529C42.7104 6.92529 41.3066 7.48111 40.3712 8.50056V7.10288H37.0519V19.04H40.5264V13.1376C40.5264 12.2699 40.7135 11.586 41.0463 11.0783C41.5506 10.2954 42.3911 9.92195 43.4017 9.92195C44.7675 9.92195 45.623 10.6221 45.7965 12.1303C45.8189 12.3187 45.8297 12.5234 45.8297 12.739V19.0394H47.7439L49.3069 16.869V12.2076C49.3069 8.56698 47.1671 6.92529 44.3371 6.92529V6.92529Z" fill="#0052FE"/>
<path d="M67.3716 2.3335L50.3223 19.0398H55.629L57.1866 16.8254L66.0085 4.27343L67.3716 2.3335Z" fill="url(#paint2_linear_57_443)"/>
<path d="M62.3463 2.3335L61.8013 3.09131L53.2451 14.9776L50.3223 19.0398L67.3716 2.3335H62.3463Z" fill="url(#paint3_linear_57_443)"/>
<path d="M65.6839 16.1226L65.4636 15.8108C65.2799 15.5505 64.981 15.396 64.6637 15.396H60.653C60.5046 15.396 60.3894 15.4841 60.3345 15.6014L67.7478 19.04L65.6839 16.1226Z" fill="#F69300"/>
<path d="M60.3345 15.6013C60.2857 15.7057 60.285 15.8331 60.3575 15.9443L61.1811 17.1976H61.1831L62.3944 19.0399H67.7485L60.3352 15.6013H60.3345Z" fill="url(#paint4_linear_57_443)"/>
<path d="M57.9241 5.42578L56.6546 3.56177L55.8181 2.33423H50.5799L57.8421 5.90704C57.9844 5.80062 58.038 5.59321 57.9248 5.42578H57.9241Z" fill="url(#paint5_linear_57_443)"/>
<path d="M50.5792 2.33368L52.814 5.55538C52.8235 5.56826 52.8323 5.57911 52.8418 5.59199C53.0268 5.83397 53.3136 5.97699 53.6199 5.97699H57.6327C57.7147 5.97699 57.7845 5.94852 57.8421 5.90582L50.5799 2.33301L50.5792 2.33368Z" fill="#F69300"/>
<path d="M74.7411 2.97178H73.3299V6.6727H72.3764V2.97178H70.9845V2.26685H74.7411V2.97178ZM76.523 2.26685L77.7078 5.44885L78.8878 2.26685H80.1351V6.6727H79.1719V5.44885L79.2779 3.36341L78.0305 6.6727H77.3803L76.1377 3.36831L76.2341 5.44885V6.6727H75.2853V2.26685H76.523V2.26685Z" fill="black"/>
<defs>
<linearGradient id="paint0_linear_57_443" x1="33.8736" y1="3.45301" x2="31.3317" y2="6.4185" gradientUnits="userSpaceOnUse">
<stop stop-color="#3372F5"/>
<stop offset="0.249995" stop-color="#3372F5"/>
<stop offset="0.505208" stop-color="#80DBFB"/>
<stop offset="0.838547" stop-color="#3372F5"/>
<stop offset="1" stop-color="#3372F5"/>
</linearGradient>
<linearGradient id="paint1_linear_57_443" x1="37.637" y1="3.44327" x2="36.957" y2="4.20872" gradientUnits="userSpaceOnUse">
<stop stop-color="#0080D4"/>
<stop offset="0.47" stop-color="white"/>
<stop offset="0.6" stop-color="#F1F8FC"/>
<stop offset="1" stop-color="#007DCC"/>
</linearGradient>
<linearGradient id="paint2_linear_57_443" x1="63.5413" y1="6.81663" x2="56.9359" y2="14.4584" gradientUnits="userSpaceOnUse">
<stop stop-color="#FFAC00"/>
<stop offset="1" stop-color="#FE7801"/>
</linearGradient>
<linearGradient id="paint3_linear_57_443" x1="50.3223" y1="10.687" x2="67.3716" y2="10.687" gradientUnits="userSpaceOnUse">
<stop stop-color="#FFCE00"/>
<stop offset="1" stop-color="#FFB003"/>
</linearGradient>
<linearGradient id="paint4_linear_57_443" x1="60.2999" y1="17.321" x2="67.7478" y2="17.321" gradientUnits="userSpaceOnUse">
<stop stop-color="#FE8B01"/>
<stop offset="1" stop-color="#FE7801"/>
</linearGradient>
<linearGradient id="paint5_linear_57_443" x1="50.5792" y1="4.1203" x2="57.9858" y2="4.1203" gradientUnits="userSpaceOnUse">
<stop stop-color="#FFCE00"/>
<stop offset="1" stop-color="#FFC101"/>
</linearGradient>
</defs>
</svg>
